{"title":"The Tapes 2011 DVDRiP AC3 XViD - REBORN","uid":6762055,"size":1502051093,"categoryP":"video","categoryS":"movies","magnet":"?xt=urn:btih:706525ef105201d6036b8bd8a1725e6391a1e92e&amp;dn=The+Tapes+2011+DVDRiP+AC3+XViD+-+REBORN&amp;tr=udp%3A%2F%2Ftracker.openbittorrent.com%3A80&amp;tr=udp%3A%2F%2Fopen.demonii.com%3A1337&amp;tr=udp%3A%2F%2Ftracker.coppersurfer.tk%3A6969&amp;tr=udp%3A%2F%2Fexodus.desync.com%3A6969","seeders":0,"leechers":1,"uploader":"sceneline","files":104,"time":1319239569,"description":"- &lt;a href=&quot;\nhttp://www.Speed.Cd&quot; rel=&quot;nofollow&quot; target=&quot;_NEW&quot;&gt;\nhttp://www.Speed.Cd&lt;/a&gt;      fast  and The Hottest Private Tracker on the net\n\nPlease Seed back to make the speed Faster!!!\n\n------------------nfo--------------------------\n-The Tapes 2011 DVDRiP AC3 XViD - REBORN\n\nSOURCES THANKED:\nNot for you to know :P\n &lt;a href=&quot;\nhttp://www.imdb.com/title/tt1647479/&quot; rel=&quot;nofollow&quot; target=&quot;_NEW&quot;&gt;\nhttp://www.imdb.com/title/tt1647479/&lt;/a&gt;\n\nVideo\nID                               : 0\nFormat                           : MPEG-4 Visual\nFormat profile                   : Advanced Simple@L5\nFormat settings, BVOP            : 2\nFormat settings, QPel            : No\nFormat settings, GMC             : No warppoints\nFormat settings, Matrix          : Default (MPEG)\nMuxing mode                      : Packed bitstream\nCodec ID                         : XVID\nCodec ID/Hint                    : XviD\nDuration                         : 1h 17mn\nBit rate                         : 2 311 Kbps\nWidth                            : 720 pixels\nHeight                           : 384 pixels\nDisplay aspect ratio             : 1.875\nFrame rate                       : 25.000 fps\nColor space                      : YUV\nChroma subsampling               : 4:2:0\nBit depth                        : 8 bits\nScan type                        : Progressive\nCompression mode                 : Lossy\nBits/(Pixel*Frame)               : 0.334\nStream size                      : 1.25 GiB (91%)\nWriting library                  : XviD 64\n\nAudio\nID                               : 1\nFormat                           : AC-3\nFormat/Info                      : Audio Coding 3\nMode extension                   : CM (complete main)\nCodec ID                         : 2000\nDuration                         : 1h 17mn\nBit rate mode                    : Constant\nBit rate                         : 224 Kbps\nChannel(s)                       : 2 channels\nChannel positions                : Front: L R\nSampling rate                    : 48.0 KHz\nBit depth                        : 16 bits\nCompression mode                 : Lossy\nStream size                      : 124 MiB (9%)\nAlignment                        : Aligned on interleaves\nInterleave, duration             : 40 ms (1.00 video frame)\nInterleave, preload duration     : 512 ms\n\n\n\nWORKDONE:\n\nStraight for rip really,with a slight rgb colour tweak along with the brightness and\ncontrast.\nAudio just left as it was on the dvdr ;-)\n\n\n[IMG]http://i.imgur.com/y61U9.png[/IMG]\n[IMG]http://i.imgur.com/yn5Jo.png[/IMG]\n[IMG]http://i.imgur.com/UX92G.png[/IMG]\n[IMG]http://i.imgur.com/Wg2aM.png[/IMG]","torrent":{"xt":"urn:btih:706525ef105201d6036b8bd8a1725e6391a1e92e","amp;dn":"The+Tapes+2011+DVDRiP+AC3+XViD+-+REBORN","amp;tr":["udp%3A%2F%2Ftracker.openbittorrent.com%3A80","udp%3A%2F%2Fopen.demonii.com%3A1337","udp%3A%2F%2Ftracker.coppersurfer.tk%3A6969","udp%3A%2F%2Fexodus.desync.com%3A6969"],"infoHash":"706525ef105201d6036b8bd8a1725e6391a1e92e","infoHashBuffer":{"type":"Buffer","data":[112,101,37,239,16,82,1,214,3,107,139,216,161,114,94,99,145,161,233,46]},"announce":[],"urlList":[]}}